<svg height="20" viewBox="0 0 20 20" width="20" xmlns="http://www.w3.org/2000/svg"><g fill="#a537fd" fill-rule="evenodd"><g transform="translate(0 4)"><path d="m.75 3h4.25v6h-4.25c-.41421356 0-.75-.33578644-.75-.75v-4.5c0-.41421356.33578644-.75.75-.75z"/><path d="m7.53033009 3.53033009 4.61611651 4.61611652c.1952622.19526215.1952622.51184463 0 .70710678-.0937682.09376819-.2209451.14644661-.3535534.14644661h-9.58578642c-.27614237 0-.5-.22385763-.5-.5 0-.13260824.05267842-.2597852.14644661-.35355339l4.61611652-4.61611652c.29289322-.29289322.76776696-.29289322 1.06066018 0z" transform="matrix(0 1 -1 0 13 -1)"/></g><g transform="translate(10 4)"><path d="m5 3h4.25c.41421356 0 .75.33578644.75.75v4.5c0 .41421356-.33578644.75-.75.75h-4.25z"/><path d="m3.53033009 3.53033009 4.61611652 4.61611652c.19526215.19526215.19526215.51184463 0 .70710678-.09376819.09376819-.22094515.14644661-.35355339.14644661h-9.58578644c-.27614237 0-.5-.22385763-.5-.5 0-.13260824.05267842-.2597852.14644661-.35355339l4.61611652-4.61611652c.29289322-.29289322.76776696-.29289322 1.06066018 0z" transform="matrix(0 -1 1 0 -3 9)"/></g></g></svg>