<svg height="324" viewBox="0 0 324 324" width="324" xmlns="http://www.w3.org/2000/svg"><g fill="none" transform="translate(2 2)"><path d="m315.843429 68.1931429-247.6502861 247.6502861c-5.0714286 5.072-13.2971429 5.072-18.3685715 0l-46.0205714-46.020572c-5.07142857-5.072-5.07142857-13.297143 0-18.369143l247.650286-247.649714c5.072-5.072 13.297143-5.072 18.369143 0l46.02 46.02c5.072 5.0725714 5.072 13.2971429 0 18.3691429z" fill="#e9eaec" stroke="#c0c0c0" stroke-width="4"/><path d="m263.904571 16.1045714c-1.510857 0-2.932.588-4 1.656s-1.66 2.4868572-1.66 4.004c0 1.5102857.588572 2.9285715 1.656 4 2.136 2.1394286 5.868572 2.1394286 8.004572 0 1.068-1.068 1.655428-2.4868571 1.655428-4 0-1.5137143-.587428-2.9325714-1.655428-4.004-1.068-1.0714285-2.490286-1.656-4.000572-1.656z" fill="#ff6e7f"/><path d="m184.007429 166.717143c-1.513143 0-2.932.588-4.003429 1.655428-1.068 1.068-1.656571 2.487429-1.656571 4.001143 0 1.512572.588571 2.932 1.656571 4.003429 2.136 2.136 5.864571 2.14 8.004 0 2.204-2.204 2.204-5.797143 0-8.004-1.068-1.068-2.490286-1.656-4.000571-1.656z" fill="#fff" stroke="#c0c0c0" stroke-width="4"/><path d="m165.639429 148.348571c-1.511429 0-2.933143.588-4.000572 1.656-1.068 1.068572-1.656 2.486858-1.656 4.004 0 1.510858.588 2.928572 1.656 4.000572 2.135429 2.139428 5.868 2.139428 8.004 0 1.068-1.068 1.656-2.486857 1.656-4.000572 0-1.513142-.588-2.932-1.656-4.004-1.068571-1.071428-2.493714-1.656-4.003428-1.656z" fill="#00bdd2"/><g stroke="#c0c0c0" stroke-width="4"><path d="m147.882286 130.595429c-1.510857 0-2.932.588-4 1.656s-1.656572 2.486857-1.656572 4.000571c0 1.513143.588572 2.932 1.656572 4.003429 2.139428 2.14 5.868 2.14 8.004 0 1.068-1.068 1.656-2.486858 1.656-4.003429 0-1.510857-.588-2.929143-1.656-4.000571-1.071429-1.070858-2.489715-1.656-4.004-1.656z" fill="#fff"/><path d="m209.768 97.4497143c-3.344 0-6.490286 1.3028571-8.854286 3.6674287-2.364571 2.364-3.666857 5.506857-3.666857 8.854286 0 3.346857 1.302286 6.486857 3.666857 8.854285 4.728 4.731429 12.973715 4.731429 17.708572 0 2.364-2.364571 3.666857-5.507428 3.666857-8.854285 0-3.347429-1.302857-6.487429-3.666857-8.854286-2.364-2.3674287-5.514286-3.6674287-8.854286-3.6674287z" fill="#fff"/><g fill="#e9eaec"><path d="m133.892 175.346286c1.469143 1.469714 3.749143-.809143 2.278857-2.278286-1.469143-1.469714-3.748.809143-2.278857 2.278286z"/><path d="m113.846286 195.392571c-1.269143-1.272-3.241715.698286-1.968572 1.969715 1.271429 1.271428 3.238286-.697715 1.968572-1.969715z"/><path d="m116.618857 192.62c1.468572 1.469714 3.749143-.809143 2.278286-2.278857-1.468572-1.469714-3.748.809714-2.278286 2.278857z"/><path d="m119.105143 200.651429c-1.269143-1.272572-3.241714.697714-1.969143 1.969714 1.271429 1.268571 3.238286-.697714 1.969143-1.969714z"/><path d="m124.255429 205.797714c-1.269143-1.272571-3.241715.698286-1.969143 1.969143 1.268 1.272572 3.238285-.696571 1.969143-1.969143z"/><path d="m124.272 195.484571c-1.622286-1.619428-4.132.894286-2.512571 2.513715 1.621714 1.618857 4.135428-.894857 2.512571-2.513715z"/><path d="m124.830857 184.408571c-1.905143-1.901142-4.853714 1.048-2.952571 2.952572 1.900571 1.905143 4.857714-1.050857 2.952571-2.952572z"/><path d="m129.303429 200.749714c-1.468572-1.468571-3.749143.809715-2.278286 2.278857 1.468571 1.469715 3.747428-.809142 2.278286-2.278857z"/><path d="m130.089143 189.667429c-1.905143-1.901143-4.857714 1.048-2.952572 2.952571 1.901143 1.905143 4.857715-1.050857 2.952572-2.952571z"/><path d="m130.912 178.325714c-1.904571-1.900571-4.857714 1.048572-2.952571 2.952572 1.905142 1.902285 4.857714-1.050286 2.952571-2.952572z"/><path d="m135.236571 194.817714c-1.905142-1.901143-4.857714 1.048-2.952571 2.952572 1.904571 1.901714 4.857143-1.050857 2.952571-2.952572z"/><path d="m136.170857 183.585143c-1.905143-1.900572-4.857714 1.048-2.952571 2.952571 1.905143 1.902286 4.857714-1.050285 2.952571-2.952571z"/><path d="m141.321143 188.732c-1.905143-1.901714-4.857714 1.047429-2.952572 2.952571 1.901143 1.905143 4.857143-1.051428 2.952572-2.952571z"/><path d="m141.546286 178.210857c-1.622857-1.619428-4.132572.893714-2.513715 2.513143 1.621715 1.62 4.135429-.893714 2.513715-2.513143z"/><path d="m138.943429 170.298857c1.269714 1.272572 3.242285-.697714 1.969142-1.969143-1.270857-1.272571-3.238285.697143-1.969142 1.969143z"/><path d="m146.576 183.476571c-1.469143-1.469142-3.749143.809715-2.278857 2.278858 1.469714 1.470285 3.752-.809715 2.278857-2.278858z"/><path d="m144.198857 175.554286c1.268572 1.273143 3.241714-.697143 1.969143-1.969143-1.268-1.269143-3.238286.697143-1.969143 1.969143z"/><path d="m151.318286 178.734857c-1.269143-1.273143-3.241715.697143-1.969715 1.968572 1.269715 1.273142 3.238286-.696 1.969715-1.968572z"/></g><path d="m73.1394286 238.16c-2.2274286 0-4.3262857.870857-5.9017143 2.445714-3.2548572 3.251429-3.2548572 8.551429 0 11.806857 3.1537143 3.150286 8.6542857 3.150286 11.8068571 0 3.2554286-3.255428 3.2554286-8.555428 0-11.806857-1.5782857-1.577714-3.6771428-2.445714-5.9051428-2.445714z" fill="#fff"/><path d="m96.404 214.893714c-2.228 0-4.3268571.870286-5.9017143 2.445715-3.2554286 3.254857-3.2554286 8.554857 0 11.806857 3.1531429 3.149714 8.6537143 3.149714 11.8068573 0 3.254286-3.252 3.254286-8.552 0-11.806857-1.579429-1.574858-3.6748573-2.445715-5.905143-2.445715z" fill="#fff"/><g fill="#c0c0c0"><path d="m71.3582857 284.048 2.0794286-2.077714-2.0777143-2.079429-2.0788571 2.077714z"/><path d="m58.2491429 270.944571 2.0794285 2.077715 2.0748572-2.077143-2.0794286-2.077143z"/><path d="m49.3034286 257.836-2.08 2.076571 2.0765714 2.08 2.08-2.076571z"/><path d="m39.7634286 248.294286-2.0788572-2.077715-2.0754285 2.077143 2.0794285 2.077143z"/></g><path d="m267.860571 79.9485714c.173143.1702857.265143.3942857.265143.636s-.092.4657143-.261714.636l-6.949714 6.9491429c-.34.3405714-.925143.3405714-1.269143 0l-9.973143-9.9731429-9.973143 9.9731429c-.340571.3405714-.925714.3405714-1.269143 0l-6.949714-6.9491429c-.169714-.1702857-.261714-.3942857-.261714-.636s.092-.4657143.261714-.636l9.973714-9.9731428-9.973714-9.9737143c-.350286-.3468572-.350286-.9182857 0-1.2685714l6.946286-6.9497143c.345714-.3405715.935428-.3365715 1.272571 0l9.973143 9.9737143 9.973143-9.9737143c.340571-.3405715.929143-.3405715 1.269143 0l6.946285 6.9497143c.349715.3462857.349715.9177142 0 1.2685714l-9.973714 9.9737143z" fill="#fff"/></g></g></svg>