<svg height="44" viewBox="0 0 44 44" width="44" xmlns="http://www.w3.org/2000/svg"><g fill="none" fill-rule="evenodd" transform="translate(2 2)"><circle cx="20" cy="20" r="20" stroke="#a537fd" stroke-linecap="round" stroke-linejoin="round" stroke-width="4"/><path d="m16.1328125 20.234375v9.171875h3.734375c1.8333425 0 3.1406211-.3203093 3.921875-.9609375s1.171875-1.6953052 1.171875-3.1640625c0-1.9375097-.4114542-3.2630173-1.234375-3.9765625s-2.1093663-1.0703125-3.859375-1.0703125zm0-8.96875v6.40625h3.671875c1.5208409 0 2.6223924-.2916638 3.3046875-.875s1.0234375-1.3177039 1.0234375-2.203125c0-1.1770892-.3359341-2.0260391-1.0078125-2.546875s-1.7786381-.78125-3.3203125-.78125zm-3.171875-2.59375h6.90625c2.3854286 0 4.2239519.51561984 5.515625 1.546875 1.2916731 1.0312552 1.9375 2.4895739 1.9375 4.375 0 1.0104217-.3411424 1.9270792-1.0234375 2.75s-1.7057223 1.3385406-3.0703125 1.546875c1.5312577.2291678 2.7317665.8828071 3.6015625 1.9609375s1.3046875 2.6588437 1.3046875 4.7421875c0 2.1145939-.6927014 3.7109321-2.078125 4.7890625s-3.447903 1.6171875-6.1875 1.6171875h-6.90625z" fill="#a537fd"/></g></svg>