<svg height="40" viewBox="0 0 40 40" width="40" xmlns="http://www.w3.org/2000/svg"><path d="m6 20h-5.5c-.27614237 0-.5-.2238576-.5-.5 0-.3192479.13103547-.6245031.36247295-.8444029l18.25710195-17.34694673c.7718399-.73336207 1.9829095-.73349347 2.7549085-.00029893l18.2715772 17.35315706c.2302963.2187205.3597067.5230638.3574604.8406641-.0019486.2755102-.2258438.4978274-.5013609.4978274h-5.5021601v18.2928932c0 .4527529-.1798554.8869622-.5 1.2071068s-.7543539.5-1.2071068.5h-6.2928932v-10.2928932c0-.4527529-.1798554-.8869622-.5-1.2071068s-.7543539-.5-1.2071068-.5h-8.5857864c-.4527529 0-.8869622.1798554-1.2071068.5s-.5.7543539-.5 1.2071068v10.2928932h-6.29289322c-.45275287 0-.88696216-.1798554-1.20710678-.5s-.5-.7543539-.5-1.2071068z" fill="#a537fd" fill-rule="evenodd"/></svg>