<svg height="307" viewBox="0 0 320 307" width="320" xmlns="http://www.w3.org/2000/svg"><g fill="none" fill-rule="evenodd"><path d="m0-6h320v320h-320z"/><path d="m217.722314 0h2.06281c1.96033.61818183 3.752066 2.13553719 4.033059 4.28099173 9.735536 34.47603307 19.838016 68.85619847 29.490908 103.35537227-8.667768 2.519008-17.213222 5.43471-25.838016 8.08595.115702.310744.231405.624793.353719.938843 4.314049-1.352066 8.59504-2.813223 12.922314-4.135537 3.322314-.92562 7.150412-1.434711 10.267768.419835 2.234712 1.596694 4.148761 3.702479 5.309091 6.21157.942148 2.928925-.347108 6.509091 2.026445 8.915702 16.069422 18.869422 32.109092 37.771901 48.148761 56.664463 4.492562 5.431405 9.335537 10.585124 13.500827 16.280992v4.06281c-1.378513 4.323966-2.277686 8.786776-3.682644 13.097521-.264464 1.586777-1.447934 2.757023-2.866117 3.368595-62.466115 23.252892-124.90909 46.571901-187.3719 69.838016-13.880992 5.014876-27.5305786 10.67438-41.6297521 15.061157h-1.6793389c-3.3123967-1.487604-7.123967-3.117356-8.5917356-6.727272-14.1090909-31.937192-28.2611571-63.864463-42.4363637-95.771902-.7603304-1.980165-.5355372-4.181818-.6876033-6.251239 0-5.732232-.1851239-11.47438.0760331-17.2.568595-2.65124 3.1768594-4.323967 5.5239669-5.315703 6.4330579-2.029752 13.0677687-3.355372 19.5305785-5.289256.9950414-.294215 1.8876033-.836364 2.7140496-1.447934-6.0958677.905785-11.9074379 3.044628-17.8876032 4.459504-2.2644628.58843-4.571901 1.140496-6.5917356 2.366943-1.9603305 1.219834-4.3438017 1.120661-6.5619834 1.365289-9.0942149-38.608265-18.60826453-77.1206614-27.8578513-115.6958679v-1.3190084c.86611571-2.3702478 2.0694215-5.3586778 4.93884297-5.7388429 70.90909093-18.0297522 141.91405003-35.6859505 212.78347103-53.8809918z" fill="#d1de00"/><g fill="#000" transform="translate(57.435897 22.564103)"><path d="m113.294681.77804615c3.41157-1.11404964 6.67438 1.76198359 7.087603 5.09421498 6.677686 24.66446277 13.2 49.37190067 19.884298 74.03636347.684297 2.7008265 1.530578 5.3652895 2.076033 8.0991738.803306 2.7173552-.958678 5.6429751-3.424793 6.7669421-2.360331.9586776-4.826447 1.6066115-7.26281 2.33719-31.633058 9.5570245-63.2727277 19.1107435-94.8925624 28.7239665-2.092562.482645-4.4363637 1.553719-6.5752065.680992-1.8446281-.869421-3.3818183-2.52562-3.6595042-4.608264-7.0347108-26.3371903-14.1090909-52.6611573-21.15702485-78.9917358-.8-3.3851241-2.41322297-6.7801653-1.72561969-10.3239669.80991733-2.7570249 3.89090913-3.6760331 6.37024784-4.277686 27.5570248-7.3256199 55.0809917-14.7636363 82.6314051-22.1190082 6.8958677-1.73884307 13.7057847-3.88099179 20.6479337-5.41818195z"/><path d="m149.661623 121.445815c3.077686-1.061157 5.38843 1.669421 7.123967 3.752066 14.072728 18.545454 28.099173 37.130578 42.191735 55.66281 1.057852 1.540496 2.231405 3.203305 2.082646 5.180164.006612 2.284298-1.894215 4.264464-4.039669 4.826448-36.013225 12.661156-71.976861 25.474379-107.9636374 38.208264-3.0347108 1.05785-6.0892562 2.680991-9.4214876 2.052892-1.7520662-.406611-2.9586777-1.976859-3.8809918-3.411571-12.152066-21.114049-24.3338843-42.211569-36.5256199-63.302478-.829752-1.573554-1.1041321-3.593389-.1454545-5.170248.9024794-2.109091 3.1041323-3.190083 5.1900826-3.778513 17.1338843-5.517355 34.2578513-11.067768 51.3752066-16.641322 18.029752-5.702479 35.950413-11.795041 54.013223-17.378512z"/><path d="m182.580632 125.032592c.366941.380165.674379.813223.872726 1.30909.700827 1.130579 1.712398 2.10248 2.86281 2.773554.452893.171901.90248.353719 1.36529.509091 1.157024.340496 2.489256.340496 3.649586 0 .456199-.158678.905787-.33719 1.36529-.509091 1.147108-.671074 2.161984-1.642975 2.862811-2.773554.191735-.499173.499173-.928925.872726-1.30909-.009918 1.335537.267768 2.776859-.515703 3.963636-.869421 1.203306-1.933883 2.333884-3.219834 3.094215-.456199.171901-.905784.353719-1.36529.509091-1.16033.33719-2.492562.343801-3.649586 0-.46281-.158678-.912397-.33719-1.36529-.509091-1.279337-.763636-2.366941-1.884298-3.209916-3.100827-.08595-.165289-.254545-.499173-.337191-.664462-.4-1.044628-.152066-2.204959-.188429-3.292562z"/><path d="m202.084763 129.660691c.366944.380165.677686.813223.872728 1.309091.700827 1.133884 1.712396 2.102479 2.862811 2.773553.449585.171901.902477.350414 1.365288.509091 1.157025.340496 2.489257.340496 3.649587 0 .456197-.158677.905785-.33719 1.365289-.509091 1.147107-.671074 2.158679-1.642975 2.86281-2.773553.191735-.495868.499173-.928926.872728-1.309091-.036365 1.090909.204958 2.244628-.185124 3.292562-.085951.165289-.254546.499173-.340496.664463-.846281 1.216529-1.930579 2.33719-3.209918 3.100826-.459504.171901-.909092.353719-1.365289.509091-1.16033.33719-2.495868.347108-3.649587-.006612-.327272-.102479-.644628-.21157-.955373-.327272-1.517353-.667769-2.661156-1.966942-3.629751-3.269422-.786776-1.183471-.509092-2.628099-.515703-3.963636z"/><path d="m177.294681 138.255732c.271075.31405.552066.644628.747108 1.024794.548761 1.226446 1.646281 2.135537 2.710744 2.915702.535537.231405 1.077684.46281 1.636363.657851 1.166942.327273 2.485951.327273 3.656197 0 .552068-.195041 1.094216-.426446 1.636365-.657851 1.064462-.780165 2.158677-1.689256 2.710743-2.915702.191735-.380166.46281-.710744.747108-1.0281-.026445 1.090909.198346 2.241323-.1719 3.292562-.704133 1.500827-1.980166 2.65124-3.285951 3.626447-.542149.23471-1.084297.46281-1.636365.657851-1.166941.327273-2.49256.327273-3.656197 0-.558679-.195041-1.100826-.426446-1.636363-.657851-1.133885-.806612-2.152067-1.811571-2.945456-2.952067-.786775-1.186776-.512396-2.628099-.512396-3.963636z"/><path d="m197.126086 143.541682c.366942.380166.677686.813224.872726 1.312397.631405 1.057851 1.583473 1.927273 2.588431 2.631405.535536.231405 1.077686.46281 1.636363.657851 1.163637.320662 2.492562.340496 3.656199-.009917.317356-.105785.638017-.218182.955372-.340496.168595-.079339.505785-.238016.671075-.314049 1.018181-.687604 1.960331-1.570248 2.598347-2.624794.191735-.499173.499173-.928925.872726-1.309091-.009916 1.335538.271075 2.77686-.515702 3.963637-.793389 1.140496-1.814876 2.14876-2.945455 2.952066-.542147.231405-1.084297.46281-1.636363.657851-1.166941.327273-2.489255.330579-3.656199 0-.558677-.195041-1.100827-.426446-1.636363-.657851-1.133885-.806612-2.152066-1.81157-2.945454-2.952066-.790082-1.186777-.509092-2.628099-.515703-3.966943z"/><path d="m200.765756 169.333418c.396693.357025.638016.826446.753719 1.345455.512396.684297 1.127272 1.447934 2.026445 1.593388.730578.304132 1.6.31405 2.333885-.003306.899173-.138843 1.510745-.905785 2.026447-1.590082.115701-.519009.350413-.991736.753719-1.345455-.016529.991736.185122 2.03967-.185124 2.98843-.357025 1.170248-1.421489 2.244628-2.595042 2.595041-.733885.310744-1.603307.307438-2.333885-.003306-1.173553-.350413-2.241321-1.421487-2.59504-2.591735-.373555-.94876-.171902-1.996694-.185124-2.98843z"/><path d="m210.352533 179.581352c.396694.357025.63471.826446.753719 1.345455.512396.684297 1.127272 1.447934 2.026445 1.593388.730579.310744 1.596696.304133 2.333886 0 .895866-.14876 1.507438-.909091 2.026445-1.593388.119009-.515703.347107-.991736.753719-1.345455-.01653.991736.185124 2.039669-.185124 2.988431-.357024 1.170246-1.424792 2.241321-2.59504 2.59504-.733886.304133-1.603307.314049-2.333886-.003305-1.173552-.347108-2.238016-1.421489-2.595042-2.588431-.373552-.952066-.171899-1.999999-.185122-2.991735z"/><path d="m17.9326976 183.055731c.4-.003304.8033059-.003304 1.2066115 0 .2082644.492562.4363637.978513.6809918 1.461157.2181818.43967.4396694.87934.6677686 1.319009.3206612.661157.6512396 1.322314.9917356 1.980167.2115703.442974.4330579.885948.6545455 1.328925.1785124.347107.3669421.69752.5586775 1.047934.4198349 1.2.1123967 2.522314.1983473 3.7719-.1355372 0-.4132232 0-.5487604 0-.1652893-.403305-.3471075-.796694-.5190082-1.190082-.1652893-.31405-.3338843-.621488-.4958679-.928926-.0793389-.16529-.2380164-.492562-.3173553-.657852-.218182-.446281-.4396695-.885951-.6644628-1.325618-.2181819-.446281-.4396695-.885951-.664463-1.322316-.3834709-.796694-.7900824-1.580164-1.1801651-2.373553-.694215-.905785-.5983471-2.03967-.5685951-3.110745z"/><path d="m7.68476369 187.022675c.40330585-.003307.80991734-.003307 1.21652903 0 .16198338.396693.34380164.790082.52231405 1.186775.23140492.433059.45619836.876035.67438013 1.322316.3338843.65785.6677686 1.319007.9851239 1.986776.1619836.307437.3239669.618182.4859505.932231.0793387.165291.2347106.499174.3140495.664464.0892562.161984.2677686.482644.3570248.644628.7438016 1.26281.2876033 2.78347.4033058 4.175206-.1355372-.003305-.4033058-.003305-.538843-.003305-.261157-.631405-.5752066-1.23967-.8694214-1.851241-.2314051-.43967-.4528927-.879337-.6677686-1.319007-.2247934-.442976-.446281-.885951-.66115712-1.325621-.08264451-.16529-.2446281-.489255-.32727261-.651239-.22479344-.442976-.44958688-.88595-.66115713-1.328927-.22809908-.439667-.44958667-.882644-.66776862-1.319007-.68760328-.909091-.59504123-2.042976-.56528923-3.114049z"/><path d="m34.1376562 188.645815c.386777.003305.7735539.023141 1.1636365.059504.4925619.340496.6280991.985124.9123967 1.487604.2214876.436363.4429752.876033.661157 1.322314.2214875.436363.4429751.876033.6578512 1.322314.2975207.598346.647934 1.176859.8760331 1.808264.0661157 1.193389.0066115 2.393389.0231405 3.590082-.1950415.019834-.5884298.056199-.7834712.076033-.3404958.145455-.6876033.27438-1.0380164.390082-.4363637.155373-.8793389.287604-1.3123967.449588-.3371902.095867-.6710745.204958-.9983471.330578-.3371902.092563-.6677686.198347-.9950414.323968-.3438017.105784-.6809916.228098-1.0115703.370248-.1553719.033056-.459504.105784-.6115703.138843-.3338843.135536-.6743801.25785-1.0181817.366941-.323967.125621-.6545454.238017-.9851239.340497-.4198347.125618-.8396695.238016-1.2661157.327272.323967.671075.6611569 1.338843 1.0016529 2.006611.1685949.350414.3471073.700827.5157024 1.057852.0826447.161984.2512398.489256.3338843.651239.0826447.16529.247934.495869.3305785.661157.0793388.16529.2413224.495869.3239669.661157.2710745.528925.5355373 1.064464.8264464 1.590084.5652892.842975.3966942 1.864462.4099173 2.823141-.198347.016527-.5917356.052892-.7900826.069419-.3371902.148761-.677686.280993-1.0280991.396696-.3272728.115702-.6611571.221487-.9950414.317355-.3272727.122314-.6578513.23471-.9917356.33719-.3272727.119007-.6578511.228099-.9917354.327272-.3272728.122314-.6578513.231405-.9917356.333885-.3305785.119007-.6611571.228099-.9983471.327272-.4330578.155372-.876033.290911-1.3090909.452892-.3471074.105787-.6909091.224794-1.0247934.363637-.1520663.036363-.4528925.105785-.6049588.138843-.4958677.366942-1.1272726.284298-1.7024794.257853-.3504131-.294216-.505785-.733886-.7305784-1.110745-.1586778-.36033-.3305785-.710745-.4925619-1.064464-.2314051-.436363-.4561983-.879337-.6710744-1.319007-.2247935-.442976-.446281-.882644-.6611571-1.322314-.2247933-.442976-.4462809-.88595-.6545455-1.328925-.1652892-.310744-.3305784-.618182-.4958677-.922316-.1851239-.426445-.3768595-.846281-.5487604-1.269421-.3438016.082646-.6842974.181819-1.0181817.297522-.3338843.099173-.6644628.211569-.9884298.340496-.3371901.09256-.6677686.204958-.9917356.330579-.3371899.09256-.6677686.198346-.9950412.323965-.3438016.105786-.6809918.2281-1.0115703.370248-.1553718.033058-.4595042.105787-.6115702.14215-.3371902.132232-.677686.254545-1.02479344.363637-.43305785.158677-.87603303.290908-1.30909088.456197-.33719015.089257-.67107446.195042-.99834707.314049-.46942154.14215-.92231405.333885-1.36528923.54215-.3107438.12562-.62479344.244627-.94545457.353719-.33057866.105784-.66776861.201653-1.00495877.287604-.22479343-.522316-.46280984-1.034712-.72066112-1.537192-.17190093-.357024-.35041313-.704131-.52231406-1.051239-.08264471-.165288-.24793394-.492562-.33057846-.654546-.08264472-.165288-.2446281-.495866-.32396697-.661157-.2743801-.532231-.53553723-1.067768-.80991734-1.596693-.32066112-.66777-.65123979-1.332232-1.0082644-1.97686-.62809929-.952067-.36363652-2.112397-.4066117-3.176859.4-.003307.8-.003307 1.20330585 0 .20826441.492562.43636369.978511.68099179 1.461157.21818175.43967.43966934.879337.67107426 1.319007.16528923.347108.340496.697522.50909087 1.051241.39008267.747106.76694216 1.500825 1.12066113 2.264462.2148761.532231.68099179 1.190082 1.27603323.621487.33057846-.102478.66115692-.211569.9851239-.333883.33388431-.099174.66446277-.208265.99173559-.330579.33388431-.099173.66776861-.20496.99504123-.323967.340496-.109091.68099179-.234712 1.01157025-.370248.1553719-.033059.45950421-.105785.61157031-.14215.3371901-.135536.6776859-.25785 1.0247934-.363635.4330578-.161983.876033-.297522 1.3090909-.452892.3371901-.099173.6677686-.208265.998347-.330578.3338843-.095869.6644628-.20496.9950415-.323968.3438016-.112398.6809916-.234711 1.0148759-.373555.1520662-.029751.4561983-.092562.6082646-.122313.5586775-.677687 1.0776859.036363 1.305785.568595.0727272.168594.2214876.505786.294215.671074.3933883.747108.7636363 1.504132 1.1305784 2.267769.2677687.466117.601653.892562.8727272 1.361983.2578513.535539.5190084 1.071075.7900827 1.603307.3008265.816529.9322314 2.138843 1.9471075 1.252892.1487604-.036363.4495866-.10248.6016529-.135538.3338843-.138841.6743801-.261157 1.0214876-.366942.4363637-.161983.876033-.29752 1.3123967-.452892.33719-.099173.6677686-.211569.9983471-.330579.3338843-.095868.6677686-.204958.9950412-.32066.3471075-.115703.6909091-.244628 1.0280993-.390084.2247934-.026445.6776859-.079338.9024794-.105785-.218182-.476033-.446281-.945454-.6809918-1.408264-.1719009-.353719-.3504133-.700827-.5190082-1.047935-.2280993-.439668-.4495869-.882644-.6611571-1.322314-.2743801-.532229-.5355373-1.064461-.8033059-1.593386-.1785124-.357026-.3669421-.70744-.5553719-1.051241-.3636363-.872727-.181818-1.847935-.1917354-2.763637-.0198348-.61157.7173553-.651239 1.1438017-.786776.3272726-.122314.657851-.231405.9950412-.323967.323967-.128925.6545454-.238016.9917356-.330578.323967-.128925.6545454-.238017.9917356-.330579.3239667-.128925.6545454-.238016.9917354-.330578.3239669-.128925.6545454-.238017.9917356-.333885.3272728-.122314.6611571-.231405.998347-.327272.4330579-.161984.8760331-.294216 1.3123967-.446281.353719-.119009.7041324-.251241 1.0446282-.403307.2049587-.009918.6181817-.033058.8231405-.046281-.2148761-.370248-.4198347-.740496-.6214876-1.114049-.2082644-.452892-.429752-.895869-.647934-1.338843-.0892562-.158677-.2644627-.47934-.3537189-.641323-.6743802-1.064462-.3371902-2.357024-.4033059-3.540495z"/></g></g></svg>